<?xml version="1.0" encoding="utf-8"?>
<!-- Generator: Adobe Illustrator 16.0.4, SVG Export Plug-In . SVG Version: 6.00 Build 0)  -->
<!DOCTYPE svg PUBLIC "-//W3C//DTD SVG 1.1//EN" "http://www.w3.org/Graphics/SVG/1.1/DTD/svg11.dtd">
<svg version="1.1" id="Layer_1" xmlns="http://www.w3.org/2000/svg" xmlns:xlink="http://www.w3.org/1999/xlink" x="0px" y="0px"
	 width="529.097px" height="70.526px" viewBox="0 0 529.097 70.526" enable-background="new 0 0 529.097 70.526"
	 xml:space="preserve">
<g>
	<defs>
		<rect id="SVGID_1_" width="529.097" height="70.526"/>
	</defs>
	<clipPath id="SVGID_2_">
		<use xlink:href="#SVGID_1_"  overflow="visible"/>
	</clipPath>
	<path clip-path="url(#SVGID_2_)" fill="#FFFFFF" d="M103.603,24.013h-3.771c-1.436,0-2.154-0.718-2.154-2.154V21.14
		c0-1.435,0.718-2.244,2.154-2.244h3.861V8.302c0-1.435,0.809-2.244,2.245-2.244h1.616c1.436,0,2.154,0.809,2.154,2.244v10.594
		h9.158c1.436,0,2.244,0.809,2.244,2.244v0.719c0,1.436-0.808,2.154-2.244,2.154h-9.158v22.624c0,10.414,6.375,11.671,9.876,11.851
		c1.795,0.18,2.424,0.719,2.424,2.245V61.9c0,1.437-0.719,2.154-2.514,2.154c-9.876,0-15.891-6.015-15.891-16.608V24.013z
		 M128.362,20.781c0-1.436,0.807-2.243,2.244-2.243h1.617c1.346,0,2.154,0.807,2.154,2.243v6.105c0,1.976-0.359,3.592-0.359,3.592
		h0.18c2.154-6.554,7.361-12.211,14.543-12.211c1.616,0,2.335,0.719,2.335,2.156v1.615c0,1.437-0.988,2.245-2.514,2.245
		c-9.517,0-14.095,10.863-14.095,20.291v16.877c0,1.437-0.718,2.244-2.154,2.244h-1.707c-1.437,0-2.244-0.808-2.244-2.244V20.781z
		 M180.64,36.044h2.604v-1.436c0-8.71-4.758-11.671-11.133-11.671c-5.027,0-8.888,1.885-10.952,3.142
		c-1.257,0.628-2.245,0.448-3.052-0.719l-0.54-0.897c-0.717-1.168-0.538-2.335,0.629-3.053c2.334-1.437,7.362-3.95,14.365-3.95
		c10.772,0,16.787,6.015,16.787,17.327v26.664c0,1.437-0.717,2.244-2.154,2.244h-1.436c-1.437,0-2.245-0.718-2.245-2.244V57.86
		c0-2.065,0.27-3.41,0.27-3.41h-0.18c0.089,0-4.04,10.323-15.262,10.323c-7.632,0-15.263-4.488-15.263-13.196
		C153.078,36.851,171.932,36.044,180.64,36.044 M169.418,59.656c8.708,0,13.825-8.979,13.825-16.879v-2.154h-2.514
		c-7.093,0-21.368,0.27-21.368,10.414C159.361,55.256,162.685,59.656,169.418,59.656 M194.294,21.14
		c-0.628-1.616,0.09-2.602,1.705-2.602h1.976c1.167,0,2.065,0.538,2.423,1.795l11.942,31.332c0.807,2.244,1.526,5.476,1.526,5.476
		h0.179c0,0,0.718-3.142,1.616-5.476l11.85-31.332c0.36-1.257,1.257-1.795,2.425-1.795h1.885c1.706,0,2.334,0.986,1.796,2.602
		l-15.711,40.851c-0.36,1.167-1.257,1.704-2.424,1.704h-2.963c-1.257,0-2.064-0.537-2.514-1.704L194.294,21.14z M258.27,17.46
		c12.031,0,18.854,8.708,18.854,21.547c0,1.257-0.986,2.243-2.334,2.243h-32.5c0.269,11.492,8.17,18.046,17.507,18.046
		c5.656,0,9.786-2.514,11.851-4.13c1.256-0.808,2.244-0.628,2.963,0.539l0.717,1.077c0.629,1.077,0.449,2.154-0.628,2.963
		c-2.424,1.795-7.811,5.027-15.083,5.027c-13.466,0-23.611-9.695-23.611-23.611C236.005,26.348,246.061,17.46,258.27,17.46
		 M270.929,36.672c-0.359-9.516-6.104-14.185-12.838-14.185c-7.541,0-14.095,5.028-15.532,14.185H270.929z M285.786,2.826
		c0-1.437,0.718-2.244,2.154-2.244h1.706c1.438,0,2.244,0.807,2.244,2.244v49.109c0,5.656,2.694,6.284,4.668,6.553
		c1.078,0.09,1.886,0.63,1.886,1.976v1.347c0,1.348-0.629,2.244-2.334,2.244c-3.681,0-10.324-1.167-10.324-11.042V2.826z
		 M344.068,17.46c7.722,0,12.749,3.321,14.993,5.118c1.077,0.807,1.167,1.885,0.27,3.052l-0.629,0.987
		c-0.808,1.257-1.796,1.257-3.053,0.448c-1.975-1.526-5.925-4.128-11.402-4.128c-9.875,0-17.596,7.451-17.596,18.224
		c0,10.684,7.721,18.135,17.687,18.135c6.284,0,10.594-2.962,12.749-4.758c1.167-0.898,2.154-0.719,2.962,0.539l0.629,0.897
		c0.718,1.166,0.449,2.154-0.539,3.052c-2.334,1.886-7.721,5.746-16.07,5.746c-13.466,0-23.701-9.606-23.701-23.611
		C320.367,27.245,330.691,17.46,344.068,17.46 M368.165,2.826c0-1.437,0.718-2.244,2.154-2.244h1.706
		c1.438,0,2.244,0.807,2.244,2.244v49.109c0,5.656,2.694,6.284,4.668,6.553c1.078,0.09,1.886,0.63,1.886,1.976v1.347
		c0,1.348-0.629,2.244-2.334,2.244c-3.68,0-10.324-1.167-10.324-11.042V2.826z M407.89,17.46c13.197,0,23.881,10.055,23.881,23.432
		c0,13.646-10.684,23.881-23.791,23.881c-13.197,0-23.88-10.234-23.88-23.881C384.1,27.515,394.782,17.46,407.89,17.46
		 M407.979,59.296c9.606,0,17.506-7.901,17.506-18.404c0-10.235-7.899-17.955-17.506-17.955c-9.697,0-17.596,7.72-17.596,17.955
		C390.384,51.395,398.282,59.296,407.979,59.296 M440.012,20.781c0-1.436,0.719-2.243,2.154-2.243h1.706
		c1.437,0,2.245,0.807,2.245,2.243v24.868c0,7.094,1.076,13.378,9.786,13.378c10.324,0,16.698-9.067,16.698-18.853V20.781
		c0-1.436,0.808-2.243,2.245-2.243h1.705c1.437,0,2.153,0.807,2.153,2.243v40.669c0,1.437-0.717,2.244-2.153,2.244h-1.616
		c-1.436,0-2.155-0.808-2.155-2.244v-5.206c0-1.795,0.27-3.232,0.27-3.232h-0.18c-1.706,4.399-7.81,11.761-17.775,11.761
		c-10.684,0-15.083-5.746-15.083-17.507V20.781z M508.269,17.46c10.954,0,14.812,9.067,14.812,9.067h0.181
		c0,0-0.27-1.526-0.27-3.411V2.826c0-1.437,0.809-2.244,2.245-2.244h1.705c1.437,0,2.154,0.807,2.154,2.244v58.625
		c0,1.437-0.718,2.244-2.154,2.244h-1.526c-1.436,0-2.244-0.718-2.244-2.154v-3.411c0-1.616,0.359-2.783,0.359-2.783h-0.181
		c0,0-3.859,9.427-15.711,9.427c-12.119,0-19.66-9.695-19.66-23.702C487.979,26.797,496.419,17.46,508.269,17.46 M508.538,59.296
		c7.541,0,14.634-5.387,14.634-18.226c0-9.157-4.668-18.045-14.364-18.045c-7.99,0-14.544,6.645-14.544,18.045
		C494.264,52.205,500.099,59.296,508.538,59.296 M311.063,54.668c-2.766,0-5.008,2.242-5.008,5.008s2.242,5.008,5.008,5.008
		s5.008-2.242,5.008-5.008S313.829,54.668,311.063,54.668"/>
	<path clip-path="url(#SVGID_2_)" fill="#FFFFFF" d="M69.082,4.413c-0.009,0.029-0.01,0.058-0.022,0.088l-9.294,23.276
		c-0.34,0.851-1.486,0.989-2.018,0.243l-6.673-9.357c0.024-0.031,0.046-0.064,0.07-0.094c0.661-0.836,1.356-1.649,2.081-2.438
		c0.709-0.804,1.45-1.586,2.219-2.342c0.764-0.763,1.556-1.502,2.375-2.213c0.812-0.721,1.656-1.409,2.505-2.098
		c0.848-0.691,1.725-1.35,2.618-1.991c0.894-0.639,1.806-1.262,2.724-1.881c0.919-0.611,1.873-1.194,2.817-1.788
		c-2.121,0.672-4.231,1.472-6.265,2.429c-1.02,0.475-2.032,0.976-3.027,1.515c-1.003,0.526-1.98,1.105-2.934,1.721
		c-0.963,0.605-1.906,1.246-2.829,1.92c-0.929,0.667-1.837,1.368-2.72,2.103c-0.881,0.739-1.738,1.51-2.565,2.315
		c-0.025,0.024-0.048,0.049-0.072,0.072l-8.336-5.202c-0.888-0.555-0.644-1.909,0.381-2.118l27.636-5.637
		c0.06-0.012,0.116-0.008,0.174-0.011C66.214,1.126,63.802,0,61.121,0H9.405C4.21,0,0,4.21,0,9.404v51.717
		c0,0.616,0.063,1.219,0.177,1.802c0.439-1.917,1.081-3.788,1.885-5.585c1.953-4.41,5.036-8.317,8.821-11.332
		c1.9-1.503,3.988-2.764,6.18-3.779c0.567-0.247,1.197-0.521,1.736-0.73l0.752-0.275l0.376-0.139l0.509-0.168
		c1.144-0.381,2.321-0.66,3.505-0.896c2.369-0.457,4.794-0.646,7.2-0.525c1.201,0.06,2.395,0.194,3.576,0.397
		c0.253-1.106,0.53-2.206,0.845-3.295c0.338-1.131,0.701-2.253,1.121-3.355c0.422-1.101,0.875-2.189,1.367-3.258
		c0.98-2.139,2.137-4.191,3.422-6.145c0.643-0.977,1.311-1.936,2.033-2.852c0.694-0.9,1.421-1.773,2.177-2.616l3.286,3.135
		c-0.513,0.735-1.012,1.48-1.474,2.244c-0.547,0.9-1.072,1.811-1.559,2.74c-0.978,1.855-1.817,3.772-2.544,5.721
		c-0.36,0.977-0.681,1.966-0.975,2.962c-0.284,1-0.551,2.001-0.784,3.011c-0.226,1.013-0.418,2.031-0.585,3.054
		c-0.154,1.025-0.278,2.054-0.39,3.084c-0.196,1.805-1.819,3.11-3.624,2.914c-0.138-0.015-0.273-0.039-0.404-0.07l-0.156-0.037
		c-3.652-0.889-7.47-0.927-11.101-0.134c-0.907,0.203-1.804,0.451-2.684,0.755l-0.252,0.083l-0.375,0.142l-0.75,0.282L20.1,48.782
		c-1.68,0.792-3.254,1.785-4.712,2.925c-1.467,1.132-2.781,2.457-3.939,3.906c-1.154,1.452-2.172,3.022-2.973,4.705
		c-1.437,2.978-2.28,6.249-2.443,9.575c1.048,0.403,2.182,0.633,3.372,0.633h51.716c5.194,0,9.405-4.211,9.405-9.405V9.404
		C70.526,7.568,69.992,5.861,69.082,4.413"/>
</g>
</svg>
